<svg width="16" height="16" viewBox="0 0 16 16" fill="none" xmlns="http://www.w3.org/2000/svg">
<g clip-path="url(#clip0_13_86)">
<mask id="mask0_13_86" style="mask-type:alpha" maskUnits="userSpaceOnUse" x="0" y="2" width="32" height="31">
<path d="M0 2H32V3H0V2Z" fill="#111111"/>
<path d="M0 4H32V5H0V4Z" fill="#111111"/>
<path d="M0 6H32V7H0V6Z" fill="#111111"/>
<path d="M0 8H32V9H0V8Z" fill="#111111"/>
<path d="M0 10H32V11H0V10Z" fill="#111111"/>
<path d="M0 12H32V13H0V12Z" fill="#111111"/>
<path d="M0 14H32V15H0V14Z" fill="#111111"/>
<path d="M0 16H32V17H0V16Z" fill="#111111"/>
<path d="M0 18H32V19H0V18Z" fill="#111111"/>
<path d="M0 20H32V21H0V20Z" fill="#111111"/>
<path d="M0 22H32V23H0V22Z" fill="#111111"/>
<path d="M0 24H32V25H0V24Z" fill="#111111"/>
<path d="M0 26H32V27H0V26Z" fill="#111111"/>
<path d="M0 28H32V29H0V28Z" fill="#111111"/>
<path d="M0 30H32V31H0V30Z" fill="#111111"/>
<path d="M0 32H32V33H0V32Z" fill="#111111"/>
</mask>
<g mask="url(#mask0_13_86)">
<path d="M0.15025 1.48H7.86225V4.008L3.35025 8.616V13H1.41425V8.024L5.92625 3.416V3.288H0.15025V1.48ZM10.72 1.48H14.576L15.856 3.416V5.656L14.512 7.064L15.856 9.064V10.888L13.856 13H9.6L8.144 10.856V8.824L9.504 7.496H9.408L8.144 5.624V4.168L10.72 1.48ZM10.08 5.272L10.528 5.96H13.04L13.92 5.096V3.768L13.584 3.288H11.488L10.08 4.728V5.272ZM10.08 10.504L10.544 11.192H13.04L13.92 10.328V9.416L12.8 7.768H11.648L10.08 9.416V10.504Z" fill="#FF8800"/>
</g>
</g>
<defs>
<clipPath id="clip0_13_86">
<rect width="16" height="16" fill="white"/>
</clipPath>
</defs>
</svg>
