<svg width="128" height="128" viewBox="0 0 128 128" fill="none" xmlns="http://www.w3.org/2000/svg">
<mask id="mask0_13_2" style="mask-type:alpha" maskUnits="userSpaceOnUse" x="0" y="2" width="128" height="124">
<path d="M0 2H128V6H0V2Z" fill="#111111"/>
<path d="M0 10H128V14H0V10Z" fill="#111111"/>
<path d="M0 18H128V22H0V18Z" fill="#111111"/>
<path d="M0 26H128V30H0V26Z" fill="#111111"/>
<path d="M0 34H128V38H0V34Z" fill="#111111"/>
<path d="M0 42H128V46H0V42Z" fill="#111111"/>
<path d="M0 50H128V54H0V50Z" fill="#111111"/>
<path d="M0 58H128V62H0V58Z" fill="#111111"/>
<path d="M0 66H128V70H0V66Z" fill="#111111"/>
<path d="M0 74H128V78H0V74Z" fill="#111111"/>
<path d="M0 82H128V86H0V82Z" fill="#111111"/>
<path d="M0 90H128V94H0V90Z" fill="#111111"/>
<path d="M0 98H128V102H0V98Z" fill="#111111"/>
<path d="M0 106H128V110H0V106Z" fill="#111111"/>
<path d="M0 114H128V118H0V114Z" fill="#111111"/>
<path d="M0 122H128V126H0V122Z" fill="#111111"/>
</mask>
<g mask="url(#mask0_13_2)">
<circle cx="64" cy="64" r="59" stroke="#FF8800" stroke-width="10"/>
<path d="M21.792 50.608H40.992L46.304 58.48L41.312 63.664L37.472 58.032H25.248L23.84 59.504V76.464L25.824 79.408H38.112L42.464 74.992L46.176 80.56L40.928 86H21.728L16.096 77.616V56.496L21.792 50.608ZM47.751 39.92H78.599V50.032L60.551 68.464V86H52.807V66.096L70.855 47.664V47.152H47.751V39.92ZM90.03 39.92H105.454L110.574 47.664V56.624L105.198 62.256L110.574 70.256V77.552L102.574 86H85.55L79.726 77.424V69.296L85.166 63.984H84.782L79.726 56.496V50.672L90.03 39.92ZM87.47 55.088L89.262 57.84H99.31L102.83 54.384V49.072L101.486 47.152H93.102L87.47 52.912V55.088ZM87.47 76.016L89.326 78.768H99.31L102.83 75.312V71.664L98.35 65.072H93.742L87.47 71.664V76.016Z" fill="#FF8800"/>
</g>
</svg>
